<?xml version="1.0" encoding="UTF-8" standalone="no"?>
<!-- Generator: Adobe Illustrator 21.1.0, SVG Export Plug-In . SVG Version: 6.00 Build 0)  -->

<svg
   xmlns:dc="http://purl.org/dc/elements/1.1/"
   xmlns:cc="http://creativecommons.org/ns#"
   xmlns:rdf="http://www.w3.org/1999/02/22-rdf-syntax-ns#"
   xmlns:svg="http://www.w3.org/2000/svg"
   xmlns="http://www.w3.org/2000/svg"
   xmlns:sodipodi="http://sodipodi.sourceforge.net/DTD/sodipodi-0.dtd"
   xmlns:inkscape="http://www.inkscape.org/namespaces/inkscape"
   version="1.1"
   id="Layer_1"
   x="0px"
   y="0px"
   viewBox="0 0 700 700"
   style="enable-background:new 0 0 700 700;"
   xml:space="preserve"
   sodipodi:docname="laravel.svg"
   inkscape:version="0.92.2 (5c3e80d, 2017-08-06)"><metadata
     id="metadata11"><rdf:RDF><cc:Work
         rdf:about=""><dc:format>image/svg+xml</dc:format><dc:type
           rdf:resource="http://purl.org/dc/dcmitype/StillImage" /></cc:Work></rdf:RDF></metadata><defs
     id="defs9" /><sodipodi:namedview
     pagecolor="#ffffff"
     bordercolor="#666666"
     borderopacity="1"
     objecttolerance="10"
     gridtolerance="10"
     guidetolerance="10"
     inkscape:pageopacity="0"
     inkscape:pageshadow="2"
     inkscape:window-width="1843"
     inkscape:window-height="1053"
     id="namedview7"
     showgrid="false"
     inkscape:zoom="0.67428571"
     inkscape:cx="255.66651"
     inkscape:cy="265.75945"
     inkscape:window-x="68"
     inkscape:window-y="-9"
     inkscape:window-maximized="1"
     inkscape:current-layer="Layer_1" /><style
     type="text/css"
     id="style2">
	.st0{fill:#FB503B;}
</style><path
     class="st0"
     d="m 686.30967,335.95495 c -4.60656,-5.08308 -67.1921,-83.5533 -78.31137,-96.8964 -11.11926,-13.34312 -16.3612,-10.96042 -23.19159,-9.8485 -6.83041,1.11193 -86.09484,14.2962 -95.30794,15.88467 -9.21311,1.58846 -14.93158,5.24193 -9.37196,13.18427 5.0831,6.98923 57.18478,81.01174 68.62173,97.21409 L 341.45376,405.21206 176.88871,129.61326 c -6.5127,-9.68964 -7.94233,-13.18426 -22.87391,-12.39003 -14.93157,0.63538 -129.301101,10.16618 -137.40227,10.80156 -8.1011822,0.63539 -17.1554293,4.28886 -8.8954174,23.5093 8.1011824,19.22043 138.0376774,299.10808 141.6911474,307.20926 3.65347,8.10117 13.02541,21.28544 35.10509,16.0435 22.55621,-5.40078 100.86757,-25.89199 143.59729,-37.01125 22.55622,40.98241 68.78057,123.90033 77.19944,135.81382 11.43695,15.88465 19.22044,13.18426 36.69356,7.94233 13.66081,-4.13001 213.48978,-75.92867 222.54404,-79.74098 9.05426,-3.65347 14.61388,-6.35386 8.41887,-15.40811 -4.44771,-6.67157 -57.18477,-77.19944 -84.82407,-114.21069 18.90274,-5.08309 86.09484,-22.8739 93.40179,-24.93891 8.26002,-2.06501 9.37194,-6.19502 4.7654,-11.27811 z M 309.5256,412.99554 c -2.54155,0.47654 -118.49954,28.27469 -124.69456,29.7043 -6.19502,1.42962 -6.19502,0.6354 -6.8304,-1.42961 -0.63539,-2.06501 -138.037666,-285.28844 -139.943833,-288.78306 -1.906155,-3.49463 -1.747313,-6.35387 0,-6.35387 1.747312,0 109.604143,-9.68964 113.416463,-9.84848 3.81231,-0.15885 3.33577,0.63538 4.76539,3.01808 0,0 152.01616,262.41453 154.71655,267.02108 2.70041,4.7654 1.11193,6.19502 -1.42961,6.67156 z m 327.38278,61.31477 c 1.90616,2.85925 3.65348,4.7654 -2.06501,6.83041 -5.87732,2.065 -196.49321,66.39787 -200.14667,67.98632 -3.65347,1.58847 -6.67156,2.06501 -11.43696,-4.76538 -4.7654,-6.83041 -66.71556,-114.21069 -66.71556,-114.21069 l 202.05284,-52.57822 c 5.0831,-1.58847 6.67155,-2.70039 9.84848,2.3827 3.17694,5.08309 66.55672,91.49563 68.46288,94.35486 z m 12.86657,-143.43844 c -4.60655,0.95307 -78.7879,19.37928 -78.7879,19.37928 l -60.67939,-83.23561 c -1.74731,-2.3827 -3.17693,-4.76539 1.11193,-5.40078 4.28885,-0.63538 73.22826,-13.02541 76.24635,-13.66081 3.17693,-0.63538 5.87733,-1.58847 9.68964,3.65347 3.81232,5.24194 56.23169,71.6398 58.2967,74.18135 2.06501,2.54155 -1.27078,4.13002 -5.87733,5.0831 z"
     id="path4"
     inkscape:connector-curvature="0"
     style="fill:#fb503b;stroke-width:1.58846569" /></svg>